<mxfile host="app.diagrams.net" modified="2021-12-10T02:47:11.239Z" agent="5.0 (Windows NT 10.0; Win64; x64) AppleWebKit/537.36 (KHTML, like Gecko) Chrome/96.0.4664.93 Safari/537.36" etag="bkvLLoM0GGxkXpjBiyFE" version="15.9.4" type="github">
  <diagram name="Page-1" id="13e1069c-82ec-6db2-03f1-153e76fe0fe0">
    <mxGraphModel dx="1038" dy="539" grid="1" gridSize="10" guides="1" tooltips="1" connect="1" arrows="1" fold="1" page="1" pageScale="1" pageWidth="1100" pageHeight="850" background="none" math="0" shadow="0">
      <root>
        <mxCell id="0" />
        <mxCell id="1" parent="0" />
        <mxCell id="7baba1c4bc27f4b0-2" value="Unity" style="shape=umlLifeline;perimeter=lifelinePerimeter;whiteSpace=wrap;html=1;container=1;collapsible=0;recursiveResize=0;outlineConnect=0;rounded=1;shadow=0;comic=0;labelBackgroundColor=none;strokeWidth=1;fontFamily=Verdana;fontSize=12;align=center;" parent="1" vertex="1">
          <mxGeometry x="240" y="80" width="100" height="600" as="geometry" />
        </mxCell>
        <mxCell id="7baba1c4bc27f4b0-10" value="" style="html=1;points=[];perimeter=orthogonalPerimeter;rounded=0;shadow=0;comic=0;labelBackgroundColor=none;strokeWidth=1;fontFamily=Verdana;fontSize=12;align=center;" parent="7baba1c4bc27f4b0-2" vertex="1">
          <mxGeometry x="45" y="200" width="10" height="350" as="geometry" />
        </mxCell>
        <mxCell id="7baba1c4bc27f4b0-3" value="NLP" style="shape=umlLifeline;perimeter=lifelinePerimeter;whiteSpace=wrap;html=1;container=1;collapsible=0;recursiveResize=0;outlineConnect=0;rounded=1;shadow=0;comic=0;labelBackgroundColor=none;strokeWidth=1;fontFamily=Verdana;fontSize=12;align=center;" parent="1" vertex="1">
          <mxGeometry x="400" y="80" width="100" height="600" as="geometry" />
        </mxCell>
        <mxCell id="7baba1c4bc27f4b0-4" value="TTS" style="shape=umlLifeline;perimeter=lifelinePerimeter;whiteSpace=wrap;html=1;container=1;collapsible=0;recursiveResize=0;outlineConnect=0;rounded=1;shadow=0;comic=0;labelBackgroundColor=none;strokeWidth=1;fontFamily=Verdana;fontSize=12;align=center;" parent="1" vertex="1">
          <mxGeometry x="540" y="80" width="100" height="600" as="geometry" />
        </mxCell>
        <mxCell id="7baba1c4bc27f4b0-22" value="" style="html=1;points=[];perimeter=orthogonalPerimeter;rounded=0;shadow=0;comic=0;labelBackgroundColor=none;strokeWidth=1;fontFamily=Verdana;fontSize=12;align=center;" parent="7baba1c4bc27f4b0-4" vertex="1">
          <mxGeometry x="45" y="410" width="10" height="80" as="geometry" />
        </mxCell>
        <mxCell id="7baba1c4bc27f4b0-5" value="后端" style="shape=umlLifeline;perimeter=lifelinePerimeter;whiteSpace=wrap;html=1;container=1;collapsible=0;recursiveResize=0;outlineConnect=0;rounded=1;shadow=0;comic=0;labelBackgroundColor=none;strokeWidth=1;fontFamily=Verdana;fontSize=12;align=center;" parent="1" vertex="1">
          <mxGeometry x="680" y="80" width="100" height="600" as="geometry" />
        </mxCell>
        <mxCell id="7baba1c4bc27f4b0-8" value="前端" style="shape=umlLifeline;perimeter=lifelinePerimeter;whiteSpace=wrap;html=1;container=1;collapsible=0;recursiveResize=0;outlineConnect=0;rounded=1;shadow=0;comic=0;labelBackgroundColor=none;strokeWidth=1;fontFamily=Verdana;fontSize=12;align=center;" parent="1" vertex="1">
          <mxGeometry x="100" y="80" width="100" height="600" as="geometry" />
        </mxCell>
        <mxCell id="7baba1c4bc27f4b0-9" value="" style="html=1;points=[];perimeter=orthogonalPerimeter;rounded=0;shadow=0;comic=0;labelBackgroundColor=none;strokeWidth=1;fontFamily=Verdana;fontSize=12;align=center;" parent="7baba1c4bc27f4b0-8" vertex="1">
          <mxGeometry x="45" y="100" width="10" height="490" as="geometry" />
        </mxCell>
        <mxCell id="jEMVf1A6fEwaLETCaXoz-1" value="" style="endArrow=classic;html=1;rounded=0;entryX=-0.38;entryY=0.029;entryDx=0;entryDy=0;entryPerimeter=0;" edge="1" parent="7baba1c4bc27f4b0-8" target="7baba1c4bc27f4b0-19">
          <mxGeometry width="50" height="50" relative="1" as="geometry">
            <mxPoint x="55" y="110" as="sourcePoint" />
            <mxPoint x="105" y="60" as="targetPoint" />
          </mxGeometry>
        </mxCell>
        <mxCell id="jEMVf1A6fEwaLETCaXoz-2" value="获取资源地址、deviceId" style="edgeLabel;html=1;align=center;verticalAlign=middle;resizable=0;points=[];" vertex="1" connectable="0" parent="jEMVf1A6fEwaLETCaXoz-1">
          <mxGeometry x="-0.1394" y="-2" relative="1" as="geometry">
            <mxPoint x="-2" y="-2" as="offset" />
          </mxGeometry>
        </mxCell>
        <mxCell id="7baba1c4bc27f4b0-19" value="" style="html=1;points=[];perimeter=orthogonalPerimeter;rounded=0;shadow=0;comic=0;labelBackgroundColor=none;strokeWidth=1;fontFamily=Verdana;fontSize=12;align=center;" parent="1" vertex="1">
          <mxGeometry x="725" y="180" width="10" height="490" as="geometry" />
        </mxCell>
        <mxCell id="7baba1c4bc27f4b0-23" value="发送文本" style="html=1;verticalAlign=bottom;endArrow=block;labelBackgroundColor=none;fontFamily=Verdana;fontSize=12;entryX=-0.06;entryY=0.503;entryDx=0;entryDy=0;entryPerimeter=0;" parent="1" edge="1">
          <mxGeometry relative="1" as="geometry">
            <mxPoint x="155" y="401.47" as="sourcePoint" />
            <mxPoint x="724.4000000000001" y="401.47" as="targetPoint" />
          </mxGeometry>
        </mxCell>
        <mxCell id="jEMVf1A6fEwaLETCaXoz-5" value="返回资源信息和deviceId" style="html=1;verticalAlign=bottom;endArrow=open;dashed=1;endSize=8;rounded=0;" edge="1" parent="1" source="7baba1c4bc27f4b0-19">
          <mxGeometry relative="1" as="geometry">
            <mxPoint x="730" y="249" as="sourcePoint" />
            <mxPoint x="160" y="240" as="targetPoint" />
            <Array as="points">
              <mxPoint x="620" y="240" />
              <mxPoint x="440" y="240" />
            </Array>
          </mxGeometry>
        </mxCell>
        <mxCell id="jEMVf1A6fEwaLETCaXoz-6" value="发送deviceId" style="html=1;verticalAlign=bottom;endArrow=block;rounded=0;" edge="1" parent="1">
          <mxGeometry x="-0.0139" y="-10" width="80" relative="1" as="geometry">
            <mxPoint x="156" y="289" as="sourcePoint" />
            <mxPoint x="280" y="289" as="targetPoint" />
            <mxPoint as="offset" />
          </mxGeometry>
        </mxCell>
        <mxCell id="jEMVf1A6fEwaLETCaXoz-7" value="通过deviceId创建ws连接" style="html=1;verticalAlign=bottom;endArrow=block;rounded=0;" edge="1" parent="1">
          <mxGeometry x="0.1435" width="80" relative="1" as="geometry">
            <mxPoint x="297" y="305" as="sourcePoint" />
            <mxPoint x="722" y="305" as="targetPoint" />
            <mxPoint as="offset" />
          </mxGeometry>
        </mxCell>
        <mxCell id="jEMVf1A6fEwaLETCaXoz-8" value="连接结果返回" style="html=1;verticalAlign=bottom;endArrow=open;dashed=1;endSize=8;rounded=0;" edge="1" parent="1">
          <mxGeometry relative="1" as="geometry">
            <mxPoint x="725.5" y="350" as="sourcePoint" />
            <mxPoint x="296" y="350" as="targetPoint" />
          </mxGeometry>
        </mxCell>
        <mxCell id="jEMVf1A6fEwaLETCaXoz-9" value="文本信息" style="html=1;verticalAlign=bottom;endArrow=block;rounded=0;" edge="1" parent="1">
          <mxGeometry width="80" relative="1" as="geometry">
            <mxPoint x="726.5" y="437" as="sourcePoint" />
            <mxPoint x="457" y="437" as="targetPoint" />
            <Array as="points">
              <mxPoint x="677" y="437" />
            </Array>
          </mxGeometry>
        </mxCell>
        <mxCell id="7baba1c4bc27f4b0-13" value="" style="html=1;points=[];perimeter=orthogonalPerimeter;rounded=0;shadow=0;comic=0;labelBackgroundColor=none;strokeWidth=1;fontFamily=Verdana;fontSize=12;align=center;" parent="1" vertex="1">
          <mxGeometry x="445" y="430" width="10" height="150" as="geometry" />
        </mxCell>
        <mxCell id="jEMVf1A6fEwaLETCaXoz-11" value="" style="html=1;verticalAlign=bottom;endArrow=none;rounded=0;entryX=0.1;entryY=0.147;entryDx=0;entryDy=0;entryPerimeter=0;" edge="1" parent="1" source="7baba1c4bc27f4b0-3" target="7baba1c4bc27f4b0-13">
          <mxGeometry width="80" relative="1" as="geometry">
            <mxPoint x="449.5" y="480.58000000000004" as="sourcePoint" />
            <mxPoint x="586" y="480.58000000000004" as="targetPoint" />
          </mxGeometry>
        </mxCell>
        <mxCell id="jEMVf1A6fEwaLETCaXoz-13" value="结果返回" style="html=1;verticalAlign=bottom;endArrow=open;dashed=1;endSize=8;rounded=0;" edge="1" parent="1">
          <mxGeometry relative="1" as="geometry">
            <mxPoint x="459" y="480" as="sourcePoint" />
            <mxPoint x="728.5" y="480" as="targetPoint" />
            <Array as="points">
              <mxPoint x="569" y="480" />
            </Array>
          </mxGeometry>
        </mxCell>
        <mxCell id="jEMVf1A6fEwaLETCaXoz-14" value="处理结果发送到tts" style="html=1;verticalAlign=bottom;endArrow=block;rounded=0;" edge="1" parent="1">
          <mxGeometry x="-0.1362" width="80" relative="1" as="geometry">
            <mxPoint x="725" y="510" as="sourcePoint" />
            <mxPoint x="594.5" y="510" as="targetPoint" />
            <Array as="points">
              <mxPoint x="675" y="510" />
              <mxPoint x="665" y="510" />
              <mxPoint x="635" y="510" />
              <mxPoint x="645" y="510" />
            </Array>
            <mxPoint as="offset" />
          </mxGeometry>
        </mxCell>
        <mxCell id="jEMVf1A6fEwaLETCaXoz-16" value="返回音频结果" style="html=1;verticalAlign=bottom;endArrow=open;dashed=1;endSize=8;rounded=0;" edge="1" parent="1">
          <mxGeometry relative="1" as="geometry">
            <mxPoint x="597" y="550" as="sourcePoint" />
            <mxPoint x="726.5" y="550" as="targetPoint" />
            <Array as="points">
              <mxPoint x="687" y="550" />
            </Array>
          </mxGeometry>
        </mxCell>
        <mxCell id="jEMVf1A6fEwaLETCaXoz-17" value="发送音频结果到channel" style="html=1;verticalAlign=bottom;endArrow=block;rounded=0;" edge="1" parent="1">
          <mxGeometry width="80" relative="1" as="geometry">
            <mxPoint x="725.5" y="607" as="sourcePoint" />
            <mxPoint x="296" y="607" as="targetPoint" />
            <Array as="points">
              <mxPoint x="426" y="607" />
            </Array>
          </mxGeometry>
        </mxCell>
        <mxCell id="jEMVf1A6fEwaLETCaXoz-24" value="&lt;span&gt;Unity创建WS连接请求：&lt;/span&gt;&lt;br&gt;&lt;span&gt;ws://192.168.110.180:7071?X-DEVICE=${deviceId}&amp;amp;X-TYPE=VH&lt;/span&gt;&lt;br&gt;&lt;span&gt;响应信息：&lt;/span&gt;&lt;br&gt;&lt;div&gt;{&lt;/div&gt;&lt;div&gt;&quot;event&quot;: &quot;CONNECT_RESPONSE&quot;,&lt;/div&gt;&lt;div&gt;&quot;data&quot;: {&lt;/div&gt;&lt;div&gt;&quot;msg&quot;: &quot;连接成功&quot;,&lt;/div&gt;&lt;div&gt;&quot;code&quot;: 200,&lt;/div&gt;&lt;div&gt;&quot;sessionId&quot;: &quot;61b2bc4a60b21e7381bdbfdd&quot;&lt;/div&gt;&lt;div&gt;}&lt;/div&gt;&lt;div&gt;}&lt;/div&gt;" style="shape=note;whiteSpace=wrap;html=1;backgroundOutline=1;darkOpacity=0.05;fontSize=12;align=left;" vertex="1" parent="1">
          <mxGeometry x="780" y="180" width="300" height="210" as="geometry" />
        </mxCell>
        <mxCell id="jEMVf1A6fEwaLETCaXoz-25" value="return" style="html=1;verticalAlign=bottom;endArrow=open;dashed=1;endSize=8;rounded=0;fontSize=12;entryX=0.98;entryY=0.964;entryDx=0;entryDy=0;entryPerimeter=0;" edge="1" parent="1" target="7baba1c4bc27f4b0-9">
          <mxGeometry x="-0.0092" relative="1" as="geometry">
            <mxPoint x="720" y="652" as="sourcePoint" />
            <mxPoint x="580" y="590" as="targetPoint" />
            <mxPoint as="offset" />
          </mxGeometry>
        </mxCell>
        <mxCell id="jEMVf1A6fEwaLETCaXoz-26" value="&lt;div style=&quot;background-color: rgb(255 , 255 , 254) ; font-family: &amp;#34;consolas&amp;#34; , &amp;#34;courier new&amp;#34; , monospace ; line-height: 18px&quot;&gt;&lt;div&gt;发送文本请求：&lt;/div&gt;&lt;div&gt;{&lt;/div&gt;&lt;div&gt;&amp;nbsp;&amp;nbsp;&amp;nbsp;&amp;nbsp;&lt;span style=&quot;color: #a31515&quot;&gt;&quot;deviceId&quot;&lt;/span&gt;:&lt;span style=&quot;color: #0451a5&quot;&gt;&quot;${deviceId}&quot;&lt;/span&gt;,&lt;/div&gt;&lt;div&gt;&amp;nbsp;&amp;nbsp;&amp;nbsp;&amp;nbsp;&lt;span style=&quot;color: #a31515&quot;&gt;&quot;text&quot;&lt;/span&gt;:&lt;span style=&quot;color: #0451a5&quot;&gt;&quot;xxxxxx&quot;&lt;/span&gt;&lt;/div&gt;&lt;div&gt;}&lt;/div&gt;&lt;div&gt;ws接收信息：&lt;/div&gt;&lt;div&gt;{&lt;/div&gt;&lt;div&gt;&quot;event&quot;:&quot;SENTENCE_BEGIN&quot;,&lt;/div&gt;&lt;div&gt;&quot;data&quot;:&lt;/div&gt;&lt;div&gt;&amp;nbsp; {&lt;/div&gt;&lt;div&gt;&amp;nbsp; &amp;nbsp;&quot;resultText&quot;: &quot;xxxx&quot;,&lt;br&gt;&lt;/div&gt;&lt;div&gt;&amp;nbsp; &amp;nbsp;&quot;originText&quot;: &quot;xxxx&quot;&lt;/div&gt;&lt;div&gt;&amp;nbsp; }&lt;/div&gt;&lt;div&gt;}&lt;br&gt;&lt;/div&gt;&lt;/div&gt;" style="shape=note;whiteSpace=wrap;html=1;backgroundOutline=1;darkOpacity=0.05;fontSize=12;align=left;" vertex="1" parent="1">
          <mxGeometry x="780" y="415" width="300" height="255" as="geometry" />
        </mxCell>
      </root>
    </mxGraphModel>
  </diagram>
</mxfile>
